<svg id="visual" viewBox="0 0 900 600" width="900" height="600" xmlns="http://www.w3.org/2000/svg" xmlns:xlink="http://www.w3.org/1999/xlink" version="1.1"><rect x="0" y="0" width="900" height="600" fill="#BBB093"></rect><g fill="none" stroke="#fff" stroke-width="2"><circle r="50" cx="67" cy="546"></circle><circle r="27" cx="88" cy="336"></circle><circle r="39" cx="522" cy="443"></circle><circle r="27" cx="646" cy="138"></circle><circle r="32" cx="677" cy="386"></circle><circle r="28" cx="677" cy="491"></circle><circle r="43" cx="861" cy="286"></circle><circle r="47" cx="863" cy="429"></circle><circle r="44" cx="349" cy="366"></circle><circle r="48" cx="143" cy="131"></circle><circle r="40" cx="368" cy="254"></circle><circle r="43" cx="808" cy="167"></circle><circle r="28" cx="154" cy="432"></circle><circle r="35" cx="202" cy="22"></circle><circle r="34" cx="508" cy="19"></circle><circle r="26" cx="304" cy="72"></circle><circle r="44" cx="463" cy="121"></circle><circle r="31" cx="726" cy="43"></circle><circle r="27" cx="877" cy="39"></circle><circle r="45" cx="477" cy="294"></circle><circle r="42" cx="371" cy="562"></circle><circle r="45" cx="244" cy="524"></circle><circle r="35" cx="790" cy="518"></circle><circle r="41" cx="617" cy="598"></circle><circle r="27" cx="893" cy="582"></circle><circle r="33" cx="265" cy="273"></circle><circle r="43" cx="29" cy="93"></circle><circle r="45" cx="11" cy="268"></circle><circle r="39" cx="581" cy="299"></circle><circle r="30" cx="401" cy="6"></circle><circle r="36" cx="247" cy="166"></circle><circle r="41" cx="737" cy="252"></circle><circle r="27" cx="17" cy="415"></circle><circle r="45" cx="516" cy="567"></circle><circle r="41" cx="159" cy="251"></circle><circle r="30" cx="165" cy="599"></circle><circle r="44" cx="617" cy="12"></circle><circle r="27" cx="87" cy="4"></circle><circle r="42" cx="262" cy="422"></circle><circle r="32" cx="394" cy="460"></circle><circle r="42" cx="529" cy="199"></circle></g></svg>